<?xml version="1.0" standalone="no"?>
<!DOCTYPE svg PUBLIC "-//W3C//DTD SVG 20010904//EN"
 "http://www.w3.org/TR/2001/REC-SVG-20010904/DTD/svg10.dtd">
<svg version="1.0" xmlns="http://www.w3.org/2000/svg"
 width="1024.000000pt" height="1024.000000pt" viewBox="0 0 1024.000000 1024.000000"
 preserveAspectRatio="xMidYMid meet">
<metadata>
Created by potrace 1.11, written by Peter Selinger 2001-2013
</metadata>
<g transform="translate(0.000000,1024.000000) scale(0.100000,-0.100000)"
fill="#000000" stroke="none">
<path d="M6705 9057 c-111 -94 -278 -281 -330 -369 -5 -9 -26 -43 -45 -75 -75
-126 -137 -286 -166 -428 -2 -11 -6 -31 -9 -45 -20 -90 -27 -373 -12 -485 11
-77 43 -225 58 -262 6 -15 15 -37 19 -48 6 -18 24 -58 69 -155 28 -61 112
-192 169 -265 72 -91 397 -416 487 -486 230 -179 481 -283 759 -315 108 -13
392 -5 439 11 7 2 23 6 37 9 139 23 356 109 486 192 132 84 266 199 397 342
l49 53 -26 34 c-43 55 -187 197 -251 245 -128 96 -265 176 -380 221 -74 30
-100 39 -120 44 -11 2 -54 14 -95 25 -159 43 -256 54 -445 47 -127 -5 -180
-11 -255 -32 -52 -14 -105 -27 -118 -30 -33 -8 -155 -56 -167 -66 -5 -5 -15
-9 -21 -9 -9 0 -5 19 13 58 36 80 81 216 88 265 4 23 8 45 11 48 9 15 19 151
19 259 -1 107 -8 201 -20 260 -43 215 -64 279 -147 445 -93 184 -196 317 -394
507 l-49 47 -50 -42z"/>
<path d="M4878 6855 c-2 -2 -39 -5 -84 -8 -94 -7 -228 -30 -332 -59 -40 -11
-84 -21 -96 -24 -29 -5 -250 -96 -319 -130 -194 -99 -358 -227 -546 -426 l-44
-47 84 -86 c334 -342 464 -473 629 -640 113 -114 196 -207 210 -234 43 -86 24
-157 -66 -246 -58 -58 -123 -85 -193 -80 -69 6 -101 24 -182 105 -189 187
-751 735 -757 738 -4 1 -38 -62 -76 -140 -39 -79 -131 -269 -207 -423 -75
-154 -163 -336 -197 -405 -33 -69 -117 -242 -187 -385 -70 -143 -155 -318
-190 -390 -34 -71 -122 -251 -195 -400 -130 -266 -264 -541 -281 -580 -5 -11
-13 -27 -19 -35 -5 -8 -41 -82 -80 -165 -39 -82 -75 -157 -81 -165 -5 -8 -12
-22 -16 -30 -6 -14 -114 -238 -296 -610 -44 -91 -81 -167 -82 -170 0 -3 -20
-43 -43 -88 -54 -108 -70 -163 -70 -245 0 -156 97 -288 245 -333 61 -19 167
-16 218 6 43 19 421 204 970 476 187 92 342 168 345 169 9 2 785 386 789 391
3 2 -180 190 -406 417 -375 377 -411 415 -417 452 -17 113 3 174 83 248 90 84
165 100 247 52 28 -16 232 -214 503 -486 252 -253 461 -459 464 -459 8 0 146
66 542 260 807 396 1180 584 1265 640 263 173 468 395 618 670 48 87 131 280
156 360 10 30 21 64 26 75 9 22 40 171 47 225 3 19 8 61 12 92 9 68 7 309 -3
388 -20 155 -74 364 -133 514 -37 96 -123 269 -135 274 -5 2 -8 8 -8 13 0 11
-69 116 -104 160 -12 14 -34 43 -51 65 -41 54 -178 190 -253 252 -139 114
-316 218 -502 294 -76 32 -231 85 -270 93 -72 15 -171 35 -200 40 -52 8 -327
25 -332 20z"/>
</g>
</svg>
